<?xml version="1.0" encoding="UTF-8" standalone="no"?>
<!DOCTYPE svg PUBLIC "-//W3C//DTD SVG 1.1//EN" "http://www.w3.org/Graphics/SVG/1.1/DTD/svg11.dtd">
<svg width="100%" height="100%" viewBox="0 0 147 57" version="1.1" xmlns="http://www.w3.org/2000/svg" xmlns:xlink="http://www.w3.org/1999/xlink" xml:space="preserve" xmlns:serif="http://www.serif.com/" style="fill-rule:evenodd;clip-rule:evenodd;stroke-linejoin:round;stroke-miterlimit:2;">
    <g>
        <path d="M116.813,15.966C121.511,10.434 124.155,5.894 126.268,0.317L90.058,0.317L90.058,31.604C97.221,30.637 107.266,27.206 116.813,15.966Z" style="fill:rgb(0,90,170);fill-rule:nonzero;"/>
        <rect x="90.063" y="41.067" width="56.688" height="15.933" style="fill:rgb(253,184,18);fill-rule:nonzero;"/>
        <path d="M146.746,0.317L128.636,0.317C126.468,6.216 123.175,12.183 118.17,18.077C108.315,29.68 97.402,33.174 90.058,34.142L90.058,38.544L146.746,38.544L146.746,0.317Z" style="fill:rgb(139,139,125);fill-rule:nonzero;"/>
        <path d="M96.603,52.993C97.988,52.993 98.421,52.71 98.421,51.474C98.421,50.103 97.959,49.745 96.543,49.73L94.651,49.73L94.651,52.979L96.603,52.993ZM94.651,45.484L94.651,48.374L96.514,48.374C97.765,48.374 98.183,48.076 98.183,46.899C98.183,45.751 97.736,45.484 96.364,45.484L94.651,45.484ZM98.212,49.075C99.762,49.208 100.284,50.177 100.284,51.817C100.284,53.933 99.315,54.498 96.916,54.498C95.038,54.498 94.055,54.484 92.818,54.379L92.818,44.098C93.92,43.993 94.815,43.978 96.453,43.978C99.047,43.978 99.971,44.544 99.971,46.66C99.971,48.136 99.464,48.896 98.212,49.015L98.212,49.075Z" style="fill:white;fill-rule:nonzero;"/>
        <path d="M103.784,49.239C103.784,52.1 104.32,52.979 106.048,52.979C107.792,52.979 108.329,52.1 108.329,49.239C108.329,46.377 107.792,45.498 106.048,45.498C104.32,45.498 103.784,46.377 103.784,49.239ZM110.296,49.239C110.296,53.322 109.193,54.574 106.048,54.574C102.92,54.574 101.817,53.322 101.817,49.239C101.817,45.156 102.92,43.904 106.048,43.904C109.193,43.904 110.296,45.156 110.296,49.239Z" style="fill:white;fill-rule:nonzero;"/>
        <g transform="matrix(1,0,0,1,10,0)">
            <path d="M103.784,49.239C103.784,52.1 104.32,52.979 106.048,52.979C107.792,52.979 108.329,52.1 108.329,49.239C108.329,46.377 107.792,45.498 106.048,45.498C104.32,45.498 103.784,46.377 103.784,49.239ZM110.296,49.239C110.296,53.322 109.193,54.574 106.048,54.574C102.92,54.574 101.817,53.322 101.817,49.239C101.817,45.156 102.92,43.904 106.048,43.904C109.193,43.904 110.296,45.156 110.296,49.239Z" style="fill:white;fill-rule:nonzero;"/>
        </g>
        <g transform="matrix(1,0,0,1,-1,0)">
            <path d="M131.242,53.694C131.242,54.141 131.003,54.379 130.556,54.379L129.08,54.379C128.677,54.379 128.468,54.201 128.306,53.814L125.415,47.51C125.221,47.093 124.909,46.452 124.804,45.975L124.626,45.975C124.7,46.496 124.715,47.018 124.715,47.525L124.715,54.379L122.881,54.379L122.881,44.783C122.881,44.336 123.135,44.098 123.582,44.098L125.028,44.098C125.43,44.098 125.624,44.277 125.802,44.663L128.604,50.788C128.798,51.236 129.095,51.861 129.319,52.412L129.498,52.412C129.453,51.846 129.423,51.295 129.423,50.743L129.423,44.098L131.242,44.098L131.242,53.694Z" style="fill:white;fill-rule:nonzero;"/>
        </g>
        <path d="M7.573,50.413C7.573,53.424 6.574,54.573 3.846,54.573C1.028,54.573 0,53.424 0,50.413L0,44.092L1.491,44.092L1.491,50.413C1.491,52.53 2.072,53.245 3.786,53.245C5.471,53.245 6.082,52.53 6.082,50.413L6.082,44.092L7.573,44.092L7.573,50.413Z" style="fill:rgb(139,139,125);fill-rule:nonzero;"/>
        <path d="M18.058,53.797C18.058,54.185 17.864,54.378 17.507,54.378L16.091,54.378C15.762,54.378 15.584,54.23 15.449,53.917L12.244,46.91C12.065,46.523 11.752,45.911 11.633,45.479L11.424,45.479C11.484,45.955 11.498,46.448 11.498,46.91L11.498,54.378L10.008,54.378L10.008,44.674C10.008,44.286 10.216,44.092 10.575,44.092L11.946,44.092C12.274,44.092 12.452,44.242 12.602,44.554L15.718,51.382C15.911,51.8 16.21,52.396 16.433,52.918L16.657,52.918C16.612,52.381 16.582,51.86 16.582,51.323L16.582,44.092L18.058,44.092L18.058,53.797Z" style="fill:rgb(139,139,125);fill-rule:nonzero;"/>
        <rect x="20.569" y="44.092" width="1.49" height="10.286" style="fill:rgb(139,139,125);fill-rule:nonzero;"/>
        <path d="M29.172,53.961C29.098,54.2 28.874,54.378 28.606,54.378L27.145,54.378C26.876,54.378 26.653,54.2 26.578,53.961L23.537,44.092L25.072,44.092L27.398,52.098C27.503,52.47 27.592,52.859 27.682,53.231L28.084,53.231C28.159,52.859 28.263,52.47 28.367,52.098L30.678,44.092L32.214,44.092L29.172,53.961Z" style="fill:rgb(139,139,125);fill-rule:nonzero;"/>
        <path d="M40.091,54.289C38.733,54.409 37.153,54.409 35.677,54.409C34.396,54.409 33.62,53.693 33.605,52.56L33.605,45.911C33.62,44.779 34.41,44.063 35.677,44.063C37.153,44.063 38.733,44.063 40.091,44.182L40.016,45.345L35.931,45.345C35.335,45.345 35.111,45.598 35.111,46.298L35.111,48.356L39.449,48.356L39.449,49.564L35.111,49.564L35.111,52.187C35.111,52.888 35.335,53.141 35.931,53.141L40.016,53.141L40.091,54.289Z" style="fill:rgb(139,139,125);fill-rule:nonzero;"/>
        <path d="M45.641,48.863C47.087,48.848 47.564,48.446 47.564,47.03C47.564,45.613 47.087,45.241 45.641,45.241C44.835,45.241 44.12,45.241 43.553,45.255L43.553,48.863L45.641,48.863ZM47.847,54.378L46.967,51.173C46.729,50.428 46.326,50.145 45.671,50.145L43.553,50.13L43.553,54.378L42.077,54.378L42.077,44.092C43.211,43.973 43.986,43.958 45.671,43.958C48.086,43.958 49.069,44.629 49.069,46.94C49.069,48.565 48.547,49.385 47.176,49.564L47.176,49.638C47.683,49.787 48.249,50.235 48.473,51.128L49.442,54.378L47.847,54.378Z" style="fill:rgb(139,139,125);fill-rule:nonzero;"/>
        <path d="M57.348,44.227L57.258,45.315C56.394,45.285 55.276,45.241 54.307,45.241C52.905,45.241 52.369,45.3 52.369,46.671C52.369,47.73 52.742,48.013 53.606,48.237L55.649,48.803C57.244,49.236 57.736,50.19 57.736,51.725C57.736,54.095 56.707,54.558 54.233,54.558C53.576,54.558 52.428,54.528 50.997,54.259L51.102,53.157C52.965,53.216 53.487,53.231 54.262,53.231C55.768,53.216 56.215,52.993 56.215,51.71C56.215,50.592 55.827,50.354 54.993,50.13L52.905,49.549C51.4,49.131 50.863,48.193 50.863,46.626C50.863,44.242 51.922,43.913 54.247,43.913C55.216,43.913 56.304,43.973 57.348,44.227Z" style="fill:rgb(139,139,125);fill-rule:nonzero;"/>
        <rect x="59.723" y="44.092" width="1.491" height="10.286" style="fill:rgb(139,139,125);fill-rule:nonzero;"/>
        <path d="M67.566,45.419L67.566,54.378L66.061,54.378L66.061,45.419L62.825,45.419L62.825,44.092L70.831,44.092L70.831,45.419L67.566,45.419Z" style="fill:rgb(139,139,125);fill-rule:nonzero;"/>
        <path d="M76.068,42.975C75.8,42.975 75.68,42.855 75.68,42.573L75.68,41.767C75.68,41.529 75.8,41.365 76.068,41.365L76.545,41.365C76.799,41.365 76.947,41.529 76.947,41.767L76.947,42.573C76.947,42.855 76.799,42.975 76.545,42.975L76.068,42.975ZM75.427,46.076C75.353,45.807 75.248,45.508 75.189,45.241L74.786,45.241C74.696,45.508 74.607,45.807 74.532,46.076L73.34,49.981L76.634,49.981L75.427,46.076ZM73.429,42.975C73.161,42.975 73.042,42.855 73.042,42.573L73.042,41.767C73.042,41.529 73.161,41.365 73.429,41.365L73.906,41.365C74.175,41.365 74.294,41.529 74.294,41.767L74.294,42.573C74.294,42.855 74.175,42.975 73.906,42.975L73.429,42.975ZM72.937,51.278L71.983,54.378L70.448,54.378L73.683,44.494C73.742,44.242 73.966,44.092 74.219,44.092L75.74,44.092C76.008,44.092 76.217,44.242 76.292,44.494L79.527,54.378L77.991,54.378L77.037,51.278L72.937,51.278Z" style="fill:rgb(139,139,125);fill-rule:nonzero;"/>
        <path d="M83.883,45.419L83.883,54.378L82.378,54.378L82.378,45.419L79.144,45.419L79.144,44.092L87.149,44.092L87.149,45.419L83.883,45.419Z" style="fill:rgb(139,139,125);fill-rule:nonzero;"/>
    </g>
</svg>
